<svg width="350" height="184" viewBox="0 0 350 184" fill="none" xmlns="http://www.w3.org/2000/svg">
<mask id="path-1-outside-1_1_2" maskUnits="userSpaceOnUse" x="-1" y="-1" width="353" height="186" fill="black">
<rect fill="white" x="-1" y="-1" width="353" height="186"/>
<path d="M0.197188 -5.72205e-06H50.2372L57.0772 9.72V22.56L45.3172 34.8H45.9172L58.1572 52.8V77.04L46.8772 84H0.197188V-5.72205e-06ZM14.7172 13.44V34.8H26.5972L42.4372 18.12V13.44H14.7172ZM14.7172 48.24V70.44H43.7572V55.2L38.7172 48.24H14.7172ZM72.0303 -5.72205e-06H86.5503V65.04L90.2703 70.44H115.59V61.68H130.11V84H82.9503L72.0303 67.44V-5.72205e-06ZM155.263 -5.72205e-06H191.383L201.943 16.08V72.48L191.023 84H155.023L144.103 67.92V11.52L155.263 -5.72205e-06ZM158.623 65.28L162.103 70.44H185.143L187.423 68.04V18.72L183.943 13.56H160.783L158.623 15.96V65.28ZM228.777 -5.72205e-06H264.777L274.497 14.64L264.897 24.72L257.577 13.68H234.297L232.137 16.08V65.16L235.617 70.44H258.657L267.177 61.92L274.737 73.2L264.417 84H228.417L217.617 67.92V11.28L228.777 -5.72205e-06ZM329.41 -5.72205e-06H348.73L315.97 33.84L349.33 84H333.37L305.77 43.68L299.17 50.16V84H284.65V-5.72205e-06H299.17V30.6L329.41 -5.72205e-06ZM0.197188 100H50.2372L57.0772 109.72V122.56L45.3172 134.8H45.9172L58.1572 152.8V177.04L46.8772 184H0.197188V100ZM14.7172 113.44V134.8H26.5972L42.4372 118.12V113.44H14.7172ZM14.7172 148.24V170.44H43.7572V155.2L38.7172 148.24H14.7172ZM72.0303 100H86.5503V165.04L90.2703 170.44H115.59V161.68H130.11V184H82.9503L72.0303 167.44V100ZM143.983 100H202.063V113.56H180.223V170.44H202.063V184H143.983V170.44H165.703V113.56H143.983V100ZM213.657 100H276.297V113.56H244.377L252.297 120.64V184H237.777V124L234.297 113.56H213.657V100ZM287.89 100H345.97V123.4L337.57 132.4H338.77V145.84H322.21L323.41 146.56L302.41 168.28V170.44H345.97V184H287.89V164.08L305.41 145.84H302.41V132.4H321.13L319.69 131.44L331.45 118.96V113.56H287.89V100Z"/>
</mask>
<path d="M0.197188 -5.72205e-06H50.2372L57.0772 9.72V22.56L45.3172 34.8H45.9172L58.1572 52.8V77.04L46.8772 84H0.197188V-5.72205e-06ZM14.7172 13.44V34.8H26.5972L42.4372 18.12V13.44H14.7172ZM14.7172 48.24V70.44H43.7572V55.2L38.7172 48.24H14.7172ZM72.0303 -5.72205e-06H86.5503V65.04L90.2703 70.44H115.59V61.68H130.11V84H82.9503L72.0303 67.44V-5.72205e-06ZM155.263 -5.72205e-06H191.383L201.943 16.08V72.48L191.023 84H155.023L144.103 67.92V11.52L155.263 -5.72205e-06ZM158.623 65.28L162.103 70.44H185.143L187.423 68.04V18.72L183.943 13.56H160.783L158.623 15.96V65.28ZM228.777 -5.72205e-06H264.777L274.497 14.64L264.897 24.72L257.577 13.68H234.297L232.137 16.08V65.16L235.617 70.44H258.657L267.177 61.92L274.737 73.2L264.417 84H228.417L217.617 67.92V11.28L228.777 -5.72205e-06ZM329.41 -5.72205e-06H348.73L315.97 33.84L349.33 84H333.37L305.77 43.68L299.17 50.16V84H284.65V-5.72205e-06H299.17V30.6L329.41 -5.72205e-06ZM0.197188 100H50.2372L57.0772 109.72V122.56L45.3172 134.8H45.9172L58.1572 152.8V177.04L46.8772 184H0.197188V100ZM14.7172 113.44V134.8H26.5972L42.4372 118.12V113.44H14.7172ZM14.7172 148.24V170.44H43.7572V155.2L38.7172 148.24H14.7172ZM72.0303 100H86.5503V165.04L90.2703 170.44H115.59V161.68H130.11V184H82.9503L72.0303 167.44V100ZM143.983 100H202.063V113.56H180.223V170.44H202.063V184H143.983V170.44H165.703V113.56H143.983V100ZM213.657 100H276.297V113.56H244.377L252.297 120.64V184H237.777V124L234.297 113.56H213.657V100ZM287.89 100H345.97V123.4L337.57 132.4H338.77V145.84H322.21L323.41 146.56L302.41 168.28V170.44H345.97V184H287.89V164.08L305.41 145.84H302.41V132.4H321.13L319.69 131.44L331.45 118.96V113.56H287.89V100Z" fill="white"/>
<path d="M0.197188 -5.72205e-06V-1.00001H-0.802812V-5.72205e-06H0.197188ZM50.2372 -5.72205e-06L51.055 -0.575499L50.7563 -1.00001H50.2372V-5.72205e-06ZM57.0772 9.72H58.0772V9.40341L57.895 9.1445L57.0772 9.72ZM57.0772 22.56L57.7983 23.2528L58.0772 22.9625V22.56H57.0772ZM45.3172 34.8L44.5961 34.1072L42.9696 35.8H45.3172V34.8ZM45.9172 34.8L46.7441 34.2377L46.4465 33.8H45.9172V34.8ZM58.1572 52.8H59.1572V52.4922L58.9841 52.2377L58.1572 52.8ZM58.1572 77.04L58.6823 77.891L59.1572 77.598V77.04H58.1572ZM46.8772 84V85H47.1609L47.4023 84.851L46.8772 84ZM0.197188 84H-0.802812V85H0.197188V84ZM14.7172 13.44V12.44H13.7172V13.44H14.7172ZM14.7172 34.8H13.7172V35.8H14.7172V34.8ZM26.5972 34.8V35.8H27.0266L27.3223 35.4886L26.5972 34.8ZM42.4372 18.12L43.1623 18.8086L43.4372 18.5192V18.12H42.4372ZM42.4372 13.44H43.4372V12.44H42.4372V13.44ZM14.7172 48.24V47.24H13.7172V48.24H14.7172ZM14.7172 70.44H13.7172V71.44H14.7172V70.44ZM43.7572 70.44V71.44H44.7572V70.44H43.7572ZM43.7572 55.2H44.7572V54.8759L44.5671 54.6135L43.7572 55.2ZM38.7172 48.24L39.5271 47.6535L39.2277 47.24H38.7172V48.24ZM0.197188 0.999994H50.2372V-1.00001H0.197188V0.999994ZM49.4194 0.575488L56.2594 10.2955L57.895 9.1445L51.055 -0.575499L49.4194 0.575488ZM56.0772 9.72V22.56H58.0772V9.72H56.0772ZM56.3561 21.8672L44.5961 34.1072L46.0383 35.4928L57.7983 23.2528L56.3561 21.8672ZM45.3172 35.8H45.9172V33.8H45.3172V35.8ZM45.0903 35.3623L57.3303 53.3623L58.9841 52.2377L46.7441 34.2377L45.0903 35.3623ZM57.1572 52.8V77.04H59.1572V52.8H57.1572ZM57.6321 76.189L46.3521 83.149L47.4023 84.851L58.6823 77.891L57.6321 76.189ZM46.8772 83H0.197188V85H46.8772V83ZM1.19719 84V-5.72205e-06H-0.802812V84H1.19719ZM13.7172 13.44V34.8H15.7172V13.44H13.7172ZM14.7172 35.8H26.5972V33.8H14.7172V35.8ZM27.3223 35.4886L43.1623 18.8086L41.7121 17.4314L25.8721 34.1114L27.3223 35.4886ZM43.4372 18.12V13.44H41.4372V18.12H43.4372ZM42.4372 12.44H14.7172V14.44H42.4372V12.44ZM13.7172 48.24V70.44H15.7172V48.24H13.7172ZM14.7172 71.44H43.7572V69.44H14.7172V71.44ZM44.7572 70.44V55.2H42.7572V70.44H44.7572ZM44.5671 54.6135L39.5271 47.6535L37.9072 48.8265L42.9472 55.7865L44.5671 54.6135ZM38.7172 47.24H14.7172V49.24H38.7172V47.24ZM72.0303 -5.72205e-06V-1.00001H71.0303V-5.72205e-06H72.0303ZM86.5503 -5.72205e-06H87.5503V-1.00001H86.5503V-5.72205e-06ZM86.5503 65.04H85.5503V65.3511L85.7268 65.6073L86.5503 65.04ZM90.2703 70.44L89.4468 71.0073L89.7449 71.44H90.2703V70.44ZM115.59 70.44V71.44H116.59V70.44H115.59ZM115.59 61.68V60.68H114.59V61.68H115.59ZM130.11 61.68H131.11V60.68H130.11V61.68ZM130.11 84V85H131.11V84H130.11ZM82.9503 84L82.1155 84.5505L82.4119 85H82.9503V84ZM72.0303 67.44H71.0303V67.74L71.1955 67.9905L72.0303 67.44ZM72.0303 0.999994H86.5503V-1.00001H72.0303V0.999994ZM85.5503 -5.72205e-06V65.04H87.5503V-5.72205e-06H85.5503ZM85.7268 65.6073L89.4468 71.0073L91.0938 69.8727L87.3738 64.4727L85.7268 65.6073ZM90.2703 71.44H115.59V69.44H90.2703V71.44ZM116.59 70.44V61.68H114.59V70.44H116.59ZM115.59 62.68H130.11V60.68H115.59V62.68ZM129.11 61.68V84H131.11V61.68H129.11ZM130.11 83H82.9503V85H130.11V83ZM83.7851 83.4495L72.8651 66.8895L71.1955 67.9905L82.1155 84.5505L83.7851 83.4495ZM73.0303 67.44V-5.72205e-06H71.0303V67.44H73.0303ZM155.263 -5.72205e-06V-1.00001H154.84L154.545 -0.695801L155.263 -5.72205e-06ZM191.383 -5.72205e-06L192.219 -0.548935L191.923 -1.00001H191.383V-5.72205e-06ZM201.943 16.08H202.943V15.781L202.779 15.5311L201.943 16.08ZM201.943 72.48L202.669 73.168L202.943 72.8786V72.48H201.943ZM191.023 84V85H191.453L191.749 84.688L191.023 84ZM155.023 84L154.196 84.5618L154.494 85H155.023V84ZM144.103 67.92H143.103V68.2275L143.276 68.4818L144.103 67.92ZM144.103 11.52L143.385 10.8242L143.103 11.115V11.52H144.103ZM158.623 65.28H157.623V65.5857L157.794 65.8391L158.623 65.28ZM162.103 70.44L161.274 70.9991L161.572 71.44H162.103V70.44ZM185.143 70.44V71.44H185.573L185.868 71.1287L185.143 70.44ZM187.423 68.04L188.148 68.7287L188.423 68.4393V68.04H187.423ZM187.423 18.72H188.423V18.4143L188.253 18.1609L187.423 18.72ZM183.943 13.56L184.773 13.0009L184.475 12.56H183.943V13.56ZM160.783 13.56V12.56H160.338L160.04 12.891L160.783 13.56ZM158.623 15.96L157.88 15.291L157.623 15.5763V15.96H158.623ZM155.263 0.999994H191.383V-1.00001H155.263V0.999994ZM190.548 0.548923L201.108 16.6289L202.779 15.5311L192.219 -0.548935L190.548 0.548923ZM200.943 16.08V72.48H202.943V16.08H200.943ZM201.218 71.792L190.298 83.312L191.749 84.688L202.669 73.168L201.218 71.792ZM191.023 83H155.023V85H191.023V83ZM155.851 83.4382L144.931 67.3582L143.276 68.4818L154.196 84.5618L155.851 83.4382ZM145.103 67.92V11.52H143.103V67.92H145.103ZM144.822 12.2158L155.982 0.695789L154.545 -0.695801L143.385 10.8242L144.822 12.2158ZM157.794 65.8391L161.274 70.9991L162.933 69.8809L159.453 64.7209L157.794 65.8391ZM162.103 71.44H185.143V69.44H162.103V71.44ZM185.868 71.1287L188.148 68.7287L186.698 67.3513L184.418 69.7512L185.868 71.1287ZM188.423 68.04V18.72H186.423V68.04H188.423ZM188.253 18.1609L184.773 13.0009L183.114 14.1191L186.594 19.2791L188.253 18.1609ZM183.943 12.56H160.783V14.56H183.943V12.56ZM160.04 12.891L157.88 15.291L159.367 16.629L161.527 14.229L160.04 12.891ZM157.623 15.96V65.28H159.623V15.96H157.623ZM228.777 -5.72205e-06V-1.00001H228.359L228.066 -0.703321L228.777 -5.72205e-06ZM264.777 -5.72205e-06L265.61 -0.553129L265.313 -1.00001H264.777V-5.72205e-06ZM274.497 14.64L275.221 15.3297L275.771 14.7517L275.33 14.0869L274.497 14.64ZM264.897 24.72L264.063 25.2726L264.756 26.3176L265.621 25.4097L264.897 24.72ZM257.577 13.68L258.41 13.1274L258.113 12.68H257.577V13.68ZM234.297 13.68V12.68H233.851L233.553 13.011L234.297 13.68ZM232.137 16.08L231.393 15.411L231.137 15.6963V16.08H232.137ZM232.137 65.16H231.137V65.4599L231.302 65.7103L232.137 65.16ZM235.617 70.44L234.782 70.9903L235.078 71.44H235.617V70.44ZM258.657 70.44V71.44H259.071L259.364 71.1471L258.657 70.44ZM267.177 61.92L268.007 61.3633L267.33 60.3525L266.469 61.2129L267.177 61.92ZM274.737 73.2L275.46 73.8909L276.014 73.3103L275.567 72.6433L274.737 73.2ZM264.417 84V85H264.844L265.14 84.6909L264.417 84ZM228.417 84L227.586 84.5576L227.884 85H228.417V84ZM217.617 67.92H216.617V68.2247L216.786 68.4776L217.617 67.92ZM217.617 11.28L216.906 10.5767L216.617 10.8689V11.28H217.617ZM228.777 0.999994H264.777V-1.00001H228.777V0.999994ZM263.943 0.553117L273.663 15.1931L275.33 14.0869L265.61 -0.553129L263.943 0.553117ZM273.772 13.9503L264.172 24.0303L265.621 25.4097L275.221 15.3297L273.772 13.9503ZM265.73 24.1674L258.41 13.1274L256.743 14.2326L264.063 25.2726L265.73 24.1674ZM257.577 12.68H234.297V14.68H257.577V12.68ZM233.553 13.011L231.393 15.411L232.88 16.749L235.04 14.349L233.553 13.011ZM231.137 16.08V65.16H233.137V16.08H231.137ZM231.302 65.7103L234.782 70.9903L236.452 69.8897L232.972 64.6097L231.302 65.7103ZM235.617 71.44H258.657V69.44H235.617V71.44ZM259.364 71.1471L267.884 62.6271L266.469 61.2129L257.949 69.7329L259.364 71.1471ZM266.346 62.4767L273.906 73.7567L275.567 72.6433L268.007 61.3633L266.346 62.4767ZM274.014 72.5091L263.694 83.3091L265.14 84.6909L275.46 73.8909L274.014 72.5091ZM264.417 83H228.417V85H264.417V83ZM229.247 83.4424L218.447 67.3624L216.786 68.4776L227.586 84.5576L229.247 83.4424ZM218.617 67.92V11.28H216.617V67.92H218.617ZM218.327 11.9833L229.487 0.70331L228.066 -0.703321L216.906 10.5767L218.327 11.9833ZM329.41 -5.72205e-06V-1.00001H328.992L328.698 -0.702916L329.41 -5.72205e-06ZM348.73 -5.72205e-06L349.448 0.695543L351.09 -1.00001H348.73V-5.72205e-06ZM315.97 33.84L315.251 33.1444L314.691 33.7231L315.137 34.3938L315.97 33.84ZM349.33 84V85H351.196L350.162 83.4462L349.33 84ZM333.37 84L332.545 84.5649L332.842 85H333.37V84ZM305.77 43.68L306.595 43.1151L305.921 42.1303L305.069 42.9664L305.77 43.68ZM299.17 50.16L298.469 49.4464L298.17 49.7404V50.16H299.17ZM299.17 84V85H300.17V84H299.17ZM284.65 84H283.65V85H284.65V84ZM284.65 -5.72205e-06V-1.00001H283.65V-5.72205e-06H284.65ZM299.17 -5.72205e-06H300.17V-1.00001H299.17V-5.72205e-06ZM299.17 30.6H298.17V33.0346L299.881 31.3029L299.17 30.6ZM329.41 0.999994H348.73V-1.00001H329.41V0.999994ZM348.011 -0.695554L315.251 33.1444L316.688 34.5355L349.448 0.695543L348.011 -0.695554ZM315.137 34.3938L348.497 84.5538L350.162 83.4462L316.802 33.2862L315.137 34.3938ZM349.33 83H333.37V85H349.33V83ZM334.195 83.4351L306.595 43.1151L304.945 44.2449L332.545 84.5649L334.195 83.4351ZM305.069 42.9664L298.469 49.4464L299.87 50.8736L306.47 44.3936L305.069 42.9664ZM298.17 50.16V84H300.17V50.16H298.17ZM299.17 83H284.65V85H299.17V83ZM285.65 84V-5.72205e-06H283.65V84H285.65ZM284.65 0.999994H299.17V-1.00001H284.65V0.999994ZM298.17 -5.72205e-06V30.6H300.17V-5.72205e-06H298.17ZM299.881 31.3029L330.121 0.702905L328.698 -0.702916L298.458 29.8971L299.881 31.3029ZM0.197188 100V99H-0.802812V100H0.197188ZM50.2372 100L51.055 99.4245L50.7563 99H50.2372V100ZM57.0772 109.72H58.0772V109.403L57.895 109.145L57.0772 109.72ZM57.0772 122.56L57.7983 123.253L58.0772 122.963V122.56H57.0772ZM45.3172 134.8L44.5961 134.107L42.9696 135.8H45.3172V134.8ZM45.9172 134.8L46.7441 134.238L46.4465 133.8H45.9172V134.8ZM58.1572 152.8H59.1572V152.492L58.9841 152.238L58.1572 152.8ZM58.1572 177.04L58.6823 177.891L59.1572 177.598V177.04H58.1572ZM46.8772 184V185H47.1609L47.4023 184.851L46.8772 184ZM0.197188 184H-0.802812V185H0.197188V184ZM14.7172 113.44V112.44H13.7172V113.44H14.7172ZM14.7172 134.8H13.7172V135.8H14.7172V134.8ZM26.5972 134.8V135.8H27.0266L27.3223 135.489L26.5972 134.8ZM42.4372 118.12L43.1623 118.809L43.4372 118.519V118.12H42.4372ZM42.4372 113.44H43.4372V112.44H42.4372V113.44ZM14.7172 148.24V147.24H13.7172V148.24H14.7172ZM14.7172 170.44H13.7172V171.44H14.7172V170.44ZM43.7572 170.44V171.44H44.7572V170.44H43.7572ZM43.7572 155.2H44.7572V154.876L44.5671 154.613L43.7572 155.2ZM38.7172 148.24L39.5271 147.653L39.2277 147.24H38.7172V148.24ZM0.197188 101H50.2372V99H0.197188V101ZM49.4194 100.575L56.2594 110.295L57.895 109.145L51.055 99.4245L49.4194 100.575ZM56.0772 109.72V122.56H58.0772V109.72H56.0772ZM56.3561 121.867L44.5961 134.107L46.0383 135.493L57.7983 123.253L56.3561 121.867ZM45.3172 135.8H45.9172V133.8H45.3172V135.8ZM45.0903 135.362L57.3303 153.362L58.9841 152.238L46.7441 134.238L45.0903 135.362ZM57.1572 152.8V177.04H59.1572V152.8H57.1572ZM57.6321 176.189L46.3521 183.149L47.4023 184.851L58.6823 177.891L57.6321 176.189ZM46.8772 183H0.197188V185H46.8772V183ZM1.19719 184V100H-0.802812V184H1.19719ZM13.7172 113.44V134.8H15.7172V113.44H13.7172ZM14.7172 135.8H26.5972V133.8H14.7172V135.8ZM27.3223 135.489L43.1623 118.809L41.7121 117.431L25.8721 134.111L27.3223 135.489ZM43.4372 118.12V113.44H41.4372V118.12H43.4372ZM42.4372 112.44H14.7172V114.44H42.4372V112.44ZM13.7172 148.24V170.44H15.7172V148.24H13.7172ZM14.7172 171.44H43.7572V169.44H14.7172V171.44ZM44.7572 170.44V155.2H42.7572V170.44H44.7572ZM44.5671 154.613L39.5271 147.653L37.9072 148.827L42.9472 155.787L44.5671 154.613ZM38.7172 147.24H14.7172V149.24H38.7172V147.24ZM72.0303 100V99H71.0303V100H72.0303ZM86.5503 100H87.5503V99H86.5503V100ZM86.5503 165.04H85.5503V165.351L85.7268 165.607L86.5503 165.04ZM90.2703 170.44L89.4468 171.007L89.7449 171.44H90.2703V170.44ZM115.59 170.44V171.44H116.59V170.44H115.59ZM115.59 161.68V160.68H114.59V161.68H115.59ZM130.11 161.68H131.11V160.68H130.11V161.68ZM130.11 184V185H131.11V184H130.11ZM82.9503 184L82.1155 184.551L82.4119 185H82.9503V184ZM72.0303 167.44H71.0303V167.74L71.1955 167.991L72.0303 167.44ZM72.0303 101H86.5503V99H72.0303V101ZM85.5503 100V165.04H87.5503V100H85.5503ZM85.7268 165.607L89.4468 171.007L91.0938 169.873L87.3738 164.473L85.7268 165.607ZM90.2703 171.44H115.59V169.44H90.2703V171.44ZM116.59 170.44V161.68H114.59V170.44H116.59ZM115.59 162.68H130.11V160.68H115.59V162.68ZM129.11 161.68V184H131.11V161.68H129.11ZM130.11 183H82.9503V185H130.11V183ZM83.7851 183.449L72.8651 166.889L71.1955 167.991L82.1155 184.551L83.7851 183.449ZM73.0303 167.44V100H71.0303V167.44H73.0303ZM143.983 100V99H142.983V100H143.983ZM202.063 100H203.063V99H202.063V100ZM202.063 113.56V114.56H203.063V113.56H202.063ZM180.223 113.56V112.56H179.223V113.56H180.223ZM180.223 170.44H179.223V171.44H180.223V170.44ZM202.063 170.44H203.063V169.44H202.063V170.44ZM202.063 184V185H203.063V184H202.063ZM143.983 184H142.983V185H143.983V184ZM143.983 170.44V169.44H142.983V170.44H143.983ZM165.703 170.44V171.44H166.703V170.44H165.703ZM165.703 113.56H166.703V112.56H165.703V113.56ZM143.983 113.56H142.983V114.56H143.983V113.56ZM143.983 101H202.063V99H143.983V101ZM201.063 100V113.56H203.063V100H201.063ZM202.063 112.56H180.223V114.56H202.063V112.56ZM179.223 113.56V170.44H181.223V113.56H179.223ZM180.223 171.44H202.063V169.44H180.223V171.44ZM201.063 170.44V184H203.063V170.44H201.063ZM202.063 183H143.983V185H202.063V183ZM144.983 184V170.44H142.983V184H144.983ZM143.983 171.44H165.703V169.44H143.983V171.44ZM166.703 170.44V113.56H164.703V170.44H166.703ZM165.703 112.56H143.983V114.56H165.703V112.56ZM144.983 113.56V100H142.983V113.56H144.983ZM213.657 100V99H212.657V100H213.657ZM276.297 100H277.297V99H276.297V100ZM276.297 113.56V114.56H277.297V113.56H276.297ZM244.377 113.56V112.56H241.757L243.71 114.306L244.377 113.56ZM252.297 120.64H253.297V120.193L252.963 119.894L252.297 120.64ZM252.297 184V185H253.297V184H252.297ZM237.777 184H236.777V185H237.777V184ZM237.777 124H238.777V123.838L238.725 123.684L237.777 124ZM234.297 113.56L235.245 113.244L235.017 112.56H234.297V113.56ZM213.657 113.56H212.657V114.56H213.657V113.56ZM213.657 101H276.297V99H213.657V101ZM275.297 100V113.56H277.297V100H275.297ZM276.297 112.56H244.377V114.56H276.297V112.56ZM243.71 114.306L251.63 121.386L252.963 119.894L245.043 112.814L243.71 114.306ZM251.297 120.64V184H253.297V120.64H251.297ZM252.297 183H237.777V185H252.297V183ZM238.777 184V124H236.777V184H238.777ZM238.725 123.684L235.245 113.244L233.348 113.876L236.828 124.316L238.725 123.684ZM234.297 112.56H213.657V114.56H234.297V112.56ZM214.657 113.56V100H212.657V113.56H214.657ZM287.89 100V99H286.89V100H287.89ZM345.97 100H346.97V99H345.97V100ZM345.97 123.4L346.701 124.082L346.97 123.794V123.4H345.97ZM337.57 132.4L336.839 131.718L335.268 133.4H337.57V132.4ZM338.77 132.4H339.77V131.4H338.77V132.4ZM338.77 145.84V146.84H339.77V145.84H338.77ZM322.21 145.84V144.84H318.599L321.695 146.697L322.21 145.84ZM323.41 146.56L324.129 147.255L325.004 146.35L323.924 145.703L323.41 146.56ZM302.41 168.28L301.691 167.585L301.41 167.876V168.28H302.41ZM302.41 170.44H301.41V171.44H302.41V170.44ZM345.97 170.44H346.97V169.44H345.97V170.44ZM345.97 184V185H346.97V184H345.97ZM287.89 184H286.89V185H287.89V184ZM287.89 164.08L287.168 163.387L286.89 163.678V164.08H287.89ZM305.41 145.84L306.131 146.533L307.757 144.84H305.41V145.84ZM302.41 145.84H301.41V146.84H302.41V145.84ZM302.41 132.4V131.4H301.41V132.4H302.41ZM321.13 132.4V133.4H324.432L321.684 131.568L321.13 132.4ZM319.69 131.44L318.962 130.754L318.15 131.616L319.135 132.272L319.69 131.44ZM331.45 118.96L332.177 119.646L332.45 119.357V118.96H331.45ZM331.45 113.56H332.45V112.56H331.45V113.56ZM287.89 113.56H286.89V114.56H287.89V113.56ZM287.89 101H345.97V99H287.89V101ZM344.97 100V123.4H346.97V100H344.97ZM345.239 122.718L336.839 131.718L338.301 133.082L346.701 124.082L345.239 122.718ZM337.57 133.4H338.77V131.4H337.57V133.4ZM337.77 132.4V145.84H339.77V132.4H337.77ZM338.77 144.84H322.21V146.84H338.77V144.84ZM321.695 146.697L322.895 147.417L323.924 145.703L322.724 144.983L321.695 146.697ZM322.691 145.865L301.691 167.585L303.129 168.975L324.129 147.255L322.691 145.865ZM301.41 168.28V170.44H303.41V168.28H301.41ZM302.41 171.44H345.97V169.44H302.41V171.44ZM344.97 170.44V184H346.97V170.44H344.97ZM345.97 183H287.89V185H345.97V183ZM288.89 184V164.08H286.89V184H288.89ZM288.611 164.773L306.131 146.533L304.688 145.147L287.168 163.387L288.611 164.773ZM305.41 144.84H302.41V146.84H305.41V144.84ZM303.41 145.84V132.4H301.41V145.84H303.41ZM302.41 133.4H321.13V131.4H302.41V133.4ZM321.684 131.568L320.244 130.608L319.135 132.272L320.575 133.232L321.684 131.568ZM320.417 132.126L332.177 119.646L330.722 118.274L318.962 130.754L320.417 132.126ZM332.45 118.96V113.56H330.45V118.96H332.45ZM331.45 112.56H287.89V114.56H331.45V112.56ZM288.89 113.56V100H286.89V113.56H288.89Z" fill="black" mask="url(#path-1-outside-1_1_2)"/>
</svg>
